<svg id="undraw_starry_window_re_0v82" xmlns="http://www.w3.org/2000/svg" width="411.013" height="654.136" viewBox="0 0 411.013 654.136">
  <path id="패스_12" data-name="패스 12" d="M568.488,279.075a5.691,5.691,0,0,1,5.693-5.694h22.461a5.693,5.693,0,0,1,5.7,5.693v1.557H654.01V202.047H514.4v78.585h54.089Z" transform="translate(-333.908 -108.869)" fill="#3f3d56"/>
  <path id="패스_13" data-name="패스 13" d="M392.994,101.14H355.323v78.585H387.31Z" transform="translate(-27.97 -7.962)" fill="#3f3d56"/>
  <path id="패스_14" data-name="패스 14" d="M654.04,100.908v85.919H608.648a94.229,94.229,0,0,1-93.85-85.9Z" transform="translate(-333.94 -100.908)" fill="#3f3d56"/>
  <path id="패스_15" data-name="패스 15" d="M717.089,116.671,712,186.826h-38.2V100.908H702.44a14.695,14.695,0,0,1,14.649,15.763Z" transform="translate(-346.457 -100.908)" fill="#3f3d56"/>
  <path id="패스_16" data-name="패스 16" d="M688.387,313.6,682.3,428.15l-.046.829-1.962,36.934a32.487,32.487,0,0,1-32.466,31.305H515.591a32.334,32.334,0,0,1-15.514-3.943c-.083-.046-.166-.092-.24-.129-.783-.433-1.539-.9-2.276-1.391-.184-.129-.368-.249-.553-.378a32.443,32.443,0,0,1-13.884-25.464l-8.1-152.316Z" transform="translate(-330.809 -117.65)" fill="#3f3d56"/>
  <path id="패스_17" data-name="패스 17" d="M461.939,130.3l4.094,56.529H503V100.908H489.145l-.369,0A27.33,27.33,0,0,0,461.939,130.3Z" transform="translate(-329.773 -100.908)" fill="#3f3d56"/>
  <path id="패스_18" data-name="패스 18" d="M154.157,179.725h30.762V101.14H148.473Z" transform="translate(-11.687 -7.962)" fill="#3f3d56"/>
  <path id="패스_19" data-name="패스 19" d="M662.469,109.908h.221v75.545h-.221a37.773,37.773,0,1,1,0-75.545Z" transform="translate(-342.591 -101.616)" fill="#4b3dfe"/>
  <path id="패스_20" data-name="패스 20" d="M704.108,147.743a37.8,37.8,0,0,1-30.3,37.036V110.708a37.8,37.8,0,0,1,30.3,37.036Z" transform="translate(-346.457 -101.679)" fill="#4b3dfe"/>
  <path id="패스_21" data-name="패스 21" d="M503.6,320.51c5.227.246,16.037,2.841,27.752,6.2s24.406,7.457,36.944,11.511q32.92,10.635,65.837,21.263,4.525,1.459,9.076,2.944c1.161,1.519,2.317,3.054,3.451,4.6-2.666-.943-5.344-1.855-8.013-2.724-11.4-3.706-21.3-6.15-32.368-9.522-17.033-5.184-35-11.993-52.429-18.333S516.429,323.275,503.6,320.51Z" transform="translate(-333.058 -118.194)" fill="#f0f0f0" opacity="0.3" style="isolation: isolate"/>
  <circle id="타원_7" data-name="타원 7" cx="2.638" cy="2.638" r="2.638" transform="translate(244.538 41.178)" fill="#fff"/>
  <circle id="타원_8" data-name="타원 8" cx="2.638" cy="2.638" r="2.638" transform="translate(338.509 113.038)" fill="#fff"/>
  <circle id="타원_9" data-name="타원 9" cx="1.764" cy="1.764" r="1.764" transform="translate(258.31 358.053)" fill="#fff"/>
  <circle id="타원_10" data-name="타원 10" cx="1.764" cy="1.764" r="1.764" transform="translate(318.194 225.388)" fill="#fff"/>
  <circle id="타원_11" data-name="타원 11" cx="1.764" cy="1.764" r="1.764" transform="translate(216.853 124.968)" fill="#fff"/>
  <circle id="타원_12" data-name="타원 12" cx="1.764" cy="1.764" r="1.764" transform="translate(191.057 269.609)" fill="#fff"/>
  <path id="패스_22" data-name="패스 22" d="M614.034,418.152c-.618-.4-1.256-.812-1.911-1.2-3.056-1.81-6.453-3.221-9.773-2.255-3.479,1.012-5.7,4.323-7.576,7.425a371.1,371.1,0,0,0-26.317,52.525c11.687-9.746,14.7-26.711,25.119-37.807,1.762-1.874,4-3.671,6.573-3.557,2.071.091,3.849,1.4,5.676,2.372,4.81,2.577,10.443,3,15.887,3.378l22.606,1.56.011-.12q-8.009-6.614-16.4-12.719Q621.1,422.776,614.034,418.152Z" transform="translate(-338.164 -125.584)" fill="#f2f2f2"/>
  <path id="패스_23" data-name="패스 23" d="M663.723,458.939a179.6,179.6,0,0,0-26.634-28.4c-.792-.682-1.594-1.354-2.4-2.027q-2.6-2.142-5.26-4.192-5.638-4.312-11.571-8.163-3.565-2.308-7.232-4.45c-.617-.359-1.234-.719-1.861-1.069-1.557-.875-3.114-1.75-4.708-2.561a11.472,11.472,0,0,0-4.994-1.548c-6.053-.092-9.194,6.762-11.35,11.378q-1.009,2.183-2.054,4.348-3.925,8.222-8.163,16.288-2.612,4.989-5.334,9.913-3.869,6.979-7.951,13.819-4.892,8.209-10.088,16.224c-5.961,9.185-11.885,17.606-18.241,26.035h.958q10.627-14.3,20.185-29.315,8.292-13.018,15.772-26.524,3.552-6.426,6.919-12.953,2.6-5.072,5.095-10.18c.479-.977.94-1.953,1.4-2.939,1.087-2.312,2.146-4.634,3.289-6.91,1.3-2.589,2.874-5.316,5.27-7.057a7.215,7.215,0,0,1,3.741-1.446,10.531,10.531,0,0,1,5.426,1.557q3.248,1.7,6.43,3.538a175.071,175.071,0,0,1,18.591,12.483q4.782,3.676,9.3,7.647a178.349,178.349,0,0,1,27.887,30.955c.249.35.829.018.58-.341Q665.253,460.975,663.723,458.939Z" transform="translate(-335.599 -124.965)" fill="#f2f2f2"/>
  <path id="패스_24" data-name="패스 24" d="M690.8,432.516a127.756,127.756,0,0,0-10.705-7.149c-1.843-1.106-3.7-2.156-5.6-3.169-.571-.3-1.152-.6-1.732-.884a26.712,26.712,0,0,0-4.127-1.677,14.716,14.716,0,0,0-6.228-.617,16.182,16.182,0,0,0-5.748,1.99c-3.768,2.11-6.689,5.362-9.526,8.54a.341.341,0,0,0,.009.47.295.295,0,0,0,.46,0c.359-.387.7-.783,1.06-1.17,2.792-3.1,5.786-6.145,9.627-7.914a13.816,13.816,0,0,1,5.85-1.354,16.63,16.63,0,0,1,6.071,1.317c.912.368,1.806.783,2.69,1.225,1,.507,2,1.05,2.976,1.594q2.778,1.534,5.473,3.2,5.376,3.317,10.4,7.149c1.373,1.041,2.718,2.1,4.044,3.206l.046-.829Q693.364,434.409,690.8,432.516Z" transform="translate(-344.349 -125.941)" fill="#f2f2f2"/>
  <path id="패스_25" data-name="패스 25" d="M516.391,481.566q5.887-7.379,11.875-14.685c.958-1.179,1.926-2.368,2.9-3.538a24.809,24.809,0,0,1,2.561-2.736,9.217,9.217,0,0,1,3.123-1.935,7.032,7.032,0,0,1,4-.055,46.409,46.409,0,0,1,4.422,1.529l4.487,1.64,9.019,3.3a.271.271,0,0,0,.332-.083.362.362,0,0,0-.157-.562l-2.266-.838-9.084-3.317c-1.511-.553-3.013-1.115-4.523-1.658a12.313,12.313,0,0,0-4.367-.958c-2.561.046-4.7,1.612-6.412,3.381-.931.967-1.778,2.008-2.626,3.049-1,1.225-2.018,2.46-3.022,3.694q-6.053,7.407-12.023,14.9t-11.866,15.026q-1.949,2.5-3.879,5c.184.129.369.249.553.378q2.6-3.372,5.233-6.725Q510.49,488.936,516.391,481.566Z" transform="translate(-332.687 -128.991)" fill="#f2f2f2"/>
  <path id="패스_26" data-name="패스 26" d="M659.752,425.2c-3.348,1.721-5.889,4.7-9.137,6.606a209.277,209.277,0,0,1,23.809-5.557A14.568,14.568,0,0,0,659.752,425.2Z" transform="translate(-344.631 -126.317)" fill="#f2f2f2"/>
  <path id="패스_27" data-name="패스 27" d="M676.459,426.463c.319.223.629.458.928.709l-.883-.718Z" transform="translate(-346.665 -126.534)" fill="#f2f2f2"/>
  <path id="패스_28" data-name="패스 28" d="M537.424,462.873a7.511,7.511,0,0,0-3.177,2.653l-33.059,40.241a140.7,140.7,0,0,0,37.477-42.845Z" transform="translate(-332.868 -129.401)" fill="#f2f2f2"/>
  <path id="패스_29" data-name="패스 29" d="M418.348,497.459c0,.024.008.04.012.063.028.166.056.316.088.481v.008q2.053,11.342,4.512,22.3l309.568-.663q2.493-11.188,4.576-22.786a.279.279,0,0,0,.008-.055Z" transform="translate(-326.347 -132.072)" fill="#e6e6e6"/>
  <path id="패스_30" data-name="패스 30" d="M434.746,407.336l21.54-.647c5.818,12.8-1.3,40.475-1.3,40.475L446.974,504.1a9.514,9.514,0,1,1-15.539,5.44l-5.366-62.455Z" transform="translate(-326.955 -124.978)" fill="#ffb8b8"/>
  <path id="패스_31" data-name="패스 31" d="M434.475,408.688l4.517-31.112,11.985-11.519a17.5,17.5,0,0,1,18.077-3.777h0A17.454,17.454,0,0,1,479.69,383.6c-3.831,12.858-10.323,28.669-19.5,30.977l-.093.023Z" transform="translate(-327.617 -121.399)" fill="#4b3dfe"/>
  <path id="패스_32" data-name="패스 32" d="M214.855,690.067h11.753l5.59-45.331H214.853Z" transform="translate(-16.913 -50.752)" fill="#ffb6b6"/>
  <path id="패스_33" data-name="패스 33" d="M530.092,790.233v15.229h37.892v-.479a14.752,14.752,0,0,0-14.747-14.75l-6.93-5.251-.359.147-12.548,5.1Z" transform="translate(-335.144 -154.756)" fill="#2f2e41"/>
  <path id="패스_34" data-name="패스 34" d="M127.855,690.067h11.753l5.59-45.331H127.853Z" transform="translate(-10.064 -50.752)" fill="#ffb6b6"/>
  <path id="패스_35" data-name="패스 35" d="M443.092,790.233v15.229h37.892v-.479a14.752,14.752,0,0,0-14.747-14.75l-6.93-5.251-.359.147-12.548,5.1Z" transform="translate(-328.295 -154.756)" fill="#2f2e41"/>
  <path id="패스_36" data-name="패스 36" d="M533.9,492.277l-81.079-4.747s-16.75,31.671-11.222,54.7,7.448,69.021,4.185,72.744-4.185-2.726-.5,4.644c3.727,7.453,2.764-1.843,2.764,4.606a24.424,24.424,0,0,1-3.656,11.975V747.609l28.472-1.83s7.691-3.757,1.111-10.141-10.792-1.364-6.843-9.4,5.791,1.175,3.949-8.038,21.333-147.52,21.333-147.52,8.889,28.584,12.754,54.47c6.654,44.569,10.2,97.435,12.851,100.2,4.193,4.368,6.957-1.16,4.193,4.368s-8.952,4.345-4.937,7.7,4.015-1.251,4.015,3.355a33.566,33.566,0,0,0,1.239,8.682l23.509-1.578-1.256-119.96Z" transform="translate(-328.09 -131.342)" fill="#2f2e41"/>
  <path id="패스_37" data-name="패스 37" d="M510.581,338.039l-26-3.094-6.657,13.973s-36.472,19.687-35.145,24.49,11.462,25.071,8.7,30.6-9.96,7.366-4.519,12.435,9.126,6.912,7.283,11.518-.921,21.189-.921,21.189-10.7,19.639-7.192,23.639,6.27.076,3.506,5.723-24.026,12.114-3.721,12.566,24.911-12.446,40.573-2.312,46.652.653,46.652.653,1.8-10.787,1.067-17.236-2.447-3.247-1.129-14.061,3.475-36.444,3.475-36.444,11.967-53.067,8.9-58.207-30.069-11.94-30.069-11.94Z" transform="translate(-327.833 -119.33)" fill="#4b3dfe"/>
  <path id="패스_38" data-name="패스 38" d="M536.21,421.9l18.618-10.853c11.222,8.465,18.181,36.185,18.181,36.185l20.151,53.853a9.514,9.514,0,1,1-11.056,12.2l-34.536-52.313Z" transform="translate(-335.625 -125.321)" fill="#ffb8b8"/>
  <path id="패스_39" data-name="패스 39" d="M536.946,423.1l-10.887-29.493,5.03-15.844a17.5,17.5,0,0,1,14.08-11.95h0c9.088-1.291,9.891,1.9,11.8,10.877,2.774,13.127,3.913,19.972,5.393,39.309l-.071.065Z" transform="translate(-334.826 -121.739)" fill="#4b3dfe"/>
  <circle id="타원_13" data-name="타원 13" cx="24.535" cy="24.535" r="24.535" transform="translate(147.802 161.47)" fill="#ffb8b8"/>
  <path id="패스_40" data-name="패스 40" d="M497.688,323.869c6.89-1.469,7.191-3.413,14.081-4.882,2.194-.468,4.744-1.237,5.464-3.361a5.174,5.174,0,0,0-1.071-4.487,42.044,42.044,0,0,1-2.887-3.817,7.452,7.452,0,0,1,5.535-10.973c2.125-.287,4.284.35,6.42.154,2.929-.268,7.6-10.935,5.811-13.269-1.741-2.272-4.681-3.7-5.59-6.41-.594-1.776-.166-3.723-.393-5.581-.336-2.756-6.151,4.636-5.318,1.987,2.043-6.5-28.559-8.614-32.046-.309-1.3,3.1-4.548,3.49-7.111,5.673-1.68,1.431-5.739,6.056-6.394,8.6a18.614,18.614,0,0,0-.013,7.828c2.12,12.082,5.95,22.858,16.968,28.25" transform="translate(-330.71 -114.02)" fill="#2f2e41"/>
  <path id="패스_41" data-name="패스 41" d="M374.41,797.53a44.843,44.843,0,0,1-36.169-13.492c-6.072-6.4-10.238-14.641-14.268-22.61-1.173-2.319-2.385-4.717-3.619-7.015a14.311,14.311,0,0,1,1.485-15.967,14.07,14.07,0,0,1,15.02-4.8l.588.17,5.292,20.65c.789-3.08,2.484-10.02,3.554-16.819l.09-.569.527.235a71.98,71.98,0,0,1,15.465,9.319A74.19,74.19,0,0,1,390.116,802.5l.014.642Z" transform="translate(-318.495 -150.67)" fill="#f2f2f2"/>
  <path id="패스_42" data-name="패스 42" d="M728.4,810.44l-408.819.283a1.1,1.1,0,1,1,0-2.194l408.819-.283a1.1,1.1,0,1,1,0,2.194Z" transform="translate(-318.487 -156.588)" fill="#cacaca"/>
</svg>
