<svg xmlns="http://www.w3.org/2000/svg" width="494.339" height="452.591" viewBox="0 0 494.339 452.591">
  <g id="undraw_outer_space_re_u9vd" transform="translate(0 0)">
    <path id="패스_74" data-name="패스 74" d="M720.516,667.895l4.75,10.651c-3.861-.615-7.452,2.683-7.533,6.918s3.363,8.641,7.225,9.243c-.738,3.288-3.923,4.738-6.687,6.067s-5.744,3.533-5.538,7.036c.165,2.813,2.491,5.3,4.962,6.3s5.062.845,7.564.678c-3.791,3.966-4.161,11.42-.831,16.768s9.979,7.981,14.958,5.922c-3.518,4.376-2.754,12.39,1.612,16.906,4.4,4.553,10.779,4.993,16.355,4.514a72.44,72.44,0,0,0,38.9-15.415c4.263-3.387,8.245-7.371,10.676-12.567a23,23,0,0,0,.883-17.688c.611,7.407,8.025,13.258,14.7,13.585s12.493-3.429,17.442-7.714c6.581-5.7,12.674-13.683,11.771-23.537-.447-4.878-2.578-9.57-4.667-14.114L843,672.634a45.639,45.639,0,0,0-5.77-10.158c-2.462-2.985-5.879-5.3-9.3-5.273.782-3.572,1.567-7.277.912-11.071s-3.164-7.724-6.576-8.613c-4.342-1.131-8.022,2.876-12.389,2.5-4.2-.364-7.675-4.581-11.755-6.252a9.41,9.41,0,0,0-10.155,1.756c-2.587,2.525-3.665,6.792-2.737,10.828.813,3.536,2.977,6.655,4.291,10.066s1.517,7.8-1.005,9.658c-3.044,2.248-7.677-.811-10.055-4.511s-3.744-8.18-6.751-11.292c-3.549-3.673-9.105-4.533-12.76-1.977s-5.052,8.282-3.21,13.149c1.506,3.979,4.957,8.005,3.76,11.753-1.265,3.96-6.8,3.459-10.138.66s-5.555-7.015-8.853-9.877a13.716,13.716,0,0,0-11.562-3.367,11.9,11.9,0,0,0-8.531,7.622" transform="translate(-403.804 -306.454)" fill="#e6e6e6"/>
    <path id="패스_75" data-name="패스 75" d="M851.122,628.112l-9.856,4.579a7.566,7.566,0,0,1-4.784.645,3.261,3.261,0,0,1-2.652-2.4l-2.293-10.712c-.433-2.021,1.241-4.411,3.979-5.684l5.443-2.529c2.739-1.272,5.645-1.009,6.91.625l6.707,8.661a3.261,3.261,0,0,1,.125,3.575A7.566,7.566,0,0,1,851.122,628.112Z" transform="translate(-457.502 -296.604)" fill="#3f3d56"/>
    <path id="패스_76" data-name="패스 76" d="M299.485,170.428A193.918,193.918,0,0,1,341.94,102.47c15.889-16.495,40.619-15.81,40.619-15.81l.141-.175a47.976,47.976,0,0,1,50.7-15.838c2.358.677,4.171.977,5.034.675,15.726-5.5,14.987-17.926,28.554-27.934,23.756-17.522,102.553,2.549,113.664,34.792,9.005,26.132,49.2,38.8,64.221,58.788q3.523,4.688,6.912,9.485,1.589,2.229,3.143,4.491a400.136,400.136,0,0,1,28.566,48.291,281.637,281.637,0,0,1,14.3,33.79c15.662,45.786,10.306,79.9-32.879,71.471q-7.668-1.5-14.968-2.685-10.57-1.725-20.4-2.835Q616.3,297.472,604.347,297q-4.019-.162-7.891-.217c-38.165-.529-66.474,6.654-88.041,17.8q-5.484,2.828-10.393,5.984a129.307,129.307,0,0,0-14.286,10.583A139.629,139.629,0,0,0,466.522,348.8l-.286.35c-25.225,30.855-33.527,65.013-51.073,71.027-75.007,25.714-122.446-67.5-127.311-158.682q-.368-6.892-.407-13.745-.023-3.063.03-6.11c.077-5.3.311-10.564.7-15.765q.219-2.983.508-5.934c.212-2.122.444-4.231.711-6.327A196.172,196.172,0,0,1,299.485,170.428Z" transform="translate(-211.488 -36.897)" fill="#4b3dfe"/>
    <path id="패스_77" data-name="패스 77" d="M729.468,371.765c-5.99,2.789-6.089,15.281-4.211,19.328l3.4,7.326,21.7-10.081-3.4-7.326C745.073,376.967,735.462,368.986,729.468,371.765Z" transform="translate(-408.985 -188.066)" fill="#3f3d56"/>
    <path id="패스_78" data-name="패스 78" d="M625.433,517.361a2.373,2.373,0,0,1-1-4.525l112.053-52.061a2.372,2.372,0,1,1,2,4.3h0L626.432,517.139a2.358,2.358,0,0,1-1,.223Z" transform="translate(-363.258 -228.477)" fill="#3f3d56"/>
    <rect id="사각형_43" data-name="사각형 43" width="35.318" height="119.244" transform="translate(317.799 219.826) rotate(-24.92)" fill="#e6e6e6"/>
    <path id="패스_79" data-name="패스 79" d="M563.539,162.039c-5.99,2.789-6.089,15.281-4.211,19.328l3.4,7.326,21.7-10.081-3.4-7.326C579.144,167.241,569.533,159.26,563.539,162.039Z" transform="translate(-333.951 -93.227)" fill="#3f3d56"/>
    <path id="패스_80" data-name="패스 80" d="M796.695,650.806l-9.856,4.579a7.567,7.567,0,0,1-4.784.645,3.261,3.261,0,0,1-2.652-2.4l-2.293-10.712c-.433-2.021,1.24-4.411,3.979-5.684l5.443-2.529c2.739-1.272,5.645-1.01,6.91.625l6.707,8.661a3.261,3.261,0,0,1,.125,3.575A7.565,7.565,0,0,1,796.695,650.806Z" transform="translate(-432.889 -306.866)" fill="#3f3d56"/>
    <path id="패스_81" data-name="패스 81" d="M741.376,678.252l-9.856,4.579a7.566,7.566,0,0,1-4.784.645,3.261,3.261,0,0,1-2.652-2.4l-2.293-10.712c-.433-2.021,1.24-4.411,3.979-5.684l5.443-2.529c2.739-1.272,5.645-1.009,6.91.625l6.707,8.661a3.261,3.261,0,0,1,.125,3.575,7.566,7.566,0,0,1-3.578,3.241Z" transform="translate(-407.874 -319.277)" fill="#3f3d56"/>
    <rect id="사각형_44" data-name="사각형 44" width="35.318" height="241.038" transform="translate(235.45 123.334) rotate(-24.92)" fill="#e6e6e6"/>
    <path id="패스_82" data-name="패스 82" d="M545.984,396.375l-3.594-7.909,2.069-.954,3.583,7.883,51.884,115.04-2.067.96" transform="translate(-245.272 -175.235)" fill="#3f3d56"/>
    <path id="패스_83" data-name="패스 83" d="M619.984,384.375l-3.594-7.909,2.069-.954,3.583,7.883,51.884,115.04-2.067.96" transform="translate(-278.735 -169.809)" fill="#3f3d56"/>
    <path id="패스_84" data-name="패스 84" d="M620.073,239.693l-43.4,20.164c-2.763-4.3-11.092-26.327-9.222-32.863l-1.4-6.233,29.966-13.923,4.011,4.934C605.979,213.6,617.57,234.29,620.073,239.693Z" transform="translate(-337.477 -113.745)" fill="#e6e6e6"/>
    <path id="패스_85" data-name="패스 85" d="M593.865,194.675l-30.923,14.367c-1.141.53-2.357.335-2.715-.435a1.069,1.069,0,0,1-.094-.352l-1.6-17.074a2.283,2.283,0,0,1,1.513-2l20.508-9.528a2.283,2.283,0,0,1,2.507.136l12.016,12.234c.615.626.281,1.7-.745,2.392a3.337,3.337,0,0,1-.464.263Z" transform="translate(-334.076 -101.315)" fill="#e6e6e6"/>
    <path id="패스_86" data-name="패스 86" d="M648.91,401.493a4.177,4.177,0,0,1-.994-.117,3.07,3.07,0,0,1-2.135-1.657l-18.906-40.692c-.782-1.685.268-3.839,2.341-4.8L656.9,341.362c2.074-.964,4.4-.377,5.18,1.308l18.906,40.692a3.069,3.069,0,0,1-.11,2.7,4.66,4.66,0,0,1-2.232,2.1l-27.683,12.862A4.886,4.886,0,0,1,648.91,401.493Z" transform="translate(-364.867 -174.368)" fill="#3f3d56"/>
    <rect id="사각형_45" data-name="사각형 45" width="35.318" height="119.244" transform="translate(255.802 248.165) rotate(-24.92)" fill="#e6e6e6"/>
    <path id="패스_87" data-name="패스 87" d="M589.4,202.694l-9.393,4.364c-1.813.842-4.258-.561-5.45-3.128s-.688-5.34,1.125-6.183l9.393-4.364c1.813-.842,4.258.561,5.45,3.128S591.214,201.851,589.4,202.694Z" transform="translate(-341.033 -107.55)" fill="#3f3d56"/>
    <path id="패스_88" data-name="패스 88" d="M617.433,422.969c-5.99,2.789-6.089,15.281-4.211,19.328l3.4,7.326,21.7-10.081-3.4-7.326C633.039,428.17,623.428,420.189,617.433,422.969Z" transform="translate(-358.322 -211.221)" fill="#3f3d56"/>
    <path id="패스_89" data-name="패스 89" d="M437.661,374.927c-2.116,1.41-4.281-1.945-2.125-3.292C437.652,370.225,439.817,373.58,437.661,374.927Z" transform="translate(-278.055 -188.114)" fill="#e6e6e6"/>
    <path id="패스_90" data-name="패스 90" d="M839.661,286.927c-2.115,1.41-4.281-1.945-2.125-3.292C839.652,282.225,841.817,285.58,839.661,286.927Z" transform="translate(-459.842 -148.32)" fill="#e6e6e6"/>
    <path id="패스_91" data-name="패스 91" d="M565.661,356.927c-2.116,1.41-4.281-1.945-2.125-3.292C565.652,352.225,567.817,355.58,565.661,356.927Z" transform="translate(-335.938 -179.974)" fill="#e6e6e6"/>
    <path id="패스_92" data-name="패스 92" d="M437.661,596.927c-2.116,1.41-4.281-1.945-2.125-3.292C437.652,592.225,439.817,595.58,437.661,596.927Z" transform="translate(-278.055 -288.504)" fill="#e6e6e6"/>
    <path id="패스_93" data-name="패스 93" d="M634.661,95.927c-2.116,1.41-4.281-1.945-2.125-3.292C634.652,91.225,636.817,94.58,634.661,95.927Z" transform="translate(-367.14 -61.948)" fill="#e6e6e6"/>
    <path id="패스_94" data-name="패스 94" d="M444.661,213.927c-2.116,1.41-4.281-1.945-2.125-3.292C444.652,209.225,446.817,212.58,444.661,213.927Z" transform="translate(-281.221 -115.309)" fill="#e6e6e6"/>
    <path id="패스_95" data-name="패스 95" d="M568.513,144.682l-1.346-.3.295-1.346-.9-.2-.3,1.346-1.346-.295-.2.9,1.346.3-.295,1.346.9.2.3-1.346,1.346.3Z" transform="translate(-255.373 -64.595)" fill="#e6e6e6"/>
    <path id="패스_96" data-name="패스 96" d="M168.416,349.461l-1.346-.3.295-1.346-.9-.2-.3,1.346-1.346-.295-.2.9,1.346.3-.295,1.347.9.2.3-1.346,1.346.295Z" transform="translate(-74.446 -157.197)" fill="#e6e6e6"/>
    <path id="패스_97" data-name="패스 97" d="M814.183,475.16A4.662,4.662,0,0,1,808,472.9l-5.54-11.923a4.656,4.656,0,0,1,8.446-3.924l5.54,11.923A4.662,4.662,0,0,1,814.183,475.16Z" transform="translate(-444.187 -225.675)" fill="#3f3d56"/>
    <path id="패스_98" data-name="패스 98" d="M642.183,555.16A4.662,4.662,0,0,1,636,552.9l-5.54-11.923a4.656,4.656,0,0,1,8.445-3.924l5.54,11.923a4.662,4.662,0,0,1-2.261,6.185Z" transform="translate(-366.407 -261.851)" fill="#3f3d56"/>
    <path id="패스_99" data-name="패스 99" d="M771.273,421.658l-37.144,17.257c-2.365-3.679-9.494-22.532-7.893-28.126l.786-6.258L749.2,393.651l4.914,4.111C761.038,395.422,771.216,412.579,771.273,421.658Z" transform="translate(-409.81 -198.223)" fill="#e6e6e6"/>
    <path id="패스_100" data-name="패스 100" d="M763.452,432.277l-9.393,4.364c-1.813.842-4.57-1.234-6.147-4.627s-1.385-6.84.428-7.682l9.393-4.364c1.813-.842,4.571,1.234,6.147,4.627S765.265,431.435,763.452,432.277Z" transform="translate(-419.234 -210.039)" fill="#3f3d56"/>
    <path id="패스_101" data-name="패스 101" d="M479.984,439.375l-3.594-7.909,2.069-.954,3.583,7.883,51.884,115.04-2.067.96" transform="translate(-215.426 -194.68)" fill="#3f3d56"/>
    <path id="패스_102" data-name="패스 102" d="M657.734,472.862l-37.144,17.257c-5.48-2.829-13.854-21.343-7.893-28.126l.786-6.258,22.178-10.881,4.914,4.111C645.672,450.53,655.592,468.238,657.734,472.862Z" transform="translate(-357.644 -221.378)" fill="#e6e6e6"/>
    <path id="패스_103" data-name="패스 103" d="M650.536,481.813l-9.393,4.364c-1.813.842-4.4-.865-5.765-3.8s-1-6.017.81-6.86l9.393-4.364c1.812-.842,4.4.865,5.765,3.8S652.349,480.97,650.536,481.813Z" transform="translate(-368.454 -233.171)" fill="#3f3d56"/>
    <circle id="타원_22" data-name="타원 22" cx="56.423" cy="56.423" r="56.423" transform="translate(37.41 55.79)" fill="#ff6584"/>
    <path id="패스_104" data-name="패스 104" d="M739.284,266.353l34.288-100.142-37.651,98.943a1.885,1.885,0,1,0,3.362,1.2Z" transform="translate(-414.11 -95.374)" fill="#f0f0f0" opacity="0.3"/>
    <path id="패스_105" data-name="패스 105" d="M561.367,197.791q-10.068,3.346-22.323,6.574c-42.26,11.126-98.9,19.805-159.5,24.439s-117.9,4.667-161.36.1c-21.171-2.227-37.916-5.43-49.769-9.521-12.55-4.33-19.144-9.549-19.6-15.51-.888-11.613,22.028-21.834,41.409-28.364l.525,1.557c-26.615,8.967-40.925,18.442-40.295,26.681.8,10.493,25.551,19.067,67.9,23.522,43.364,4.561,100.564,4.527,161.063-.1s117.039-13.288,159.206-24.39c41.18-10.841,64.339-23.078,63.536-33.572-.666-8.712-17.84-16.166-48.358-20.987l.257-1.623c22.175,3.5,48.8,10.248,49.74,22.485.456,5.961-5.268,12.121-17.014,18.309A171.67,171.67,0,0,1,561.367,197.791Z" transform="translate(-148.791 -86.502)" fill="#3f3d56"/>
    <circle id="타원_23" data-name="타원 23" cx="5.863" cy="5.863" r="5.863" transform="translate(423.293 199.635)" fill="#ff6584"/>
    <circle id="타원_24" data-name="타원 24" cx="5.863" cy="5.863" r="5.863" transform="translate(460.543 358.495)" fill="#f2f2f2"/>
    <circle id="타원_25" data-name="타원 25" cx="11.43" cy="11.43" r="11.43" transform="translate(255.03 383.056)" fill="#f2f2f2"/>
    <circle id="타원_26" data-name="타원 26" cx="5.863" cy="5.863" r="5.863" transform="translate(173.499 242.91)" fill="#3f3d56"/>
    <path id="패스_106" data-name="패스 106" d="M687.226,478.768l25.295,6.548,15.514,30.473-26.228,1.029Z" transform="translate(-310.768 -216.502)" fill="#e6e6e6"/>
    <path id="패스_107" data-name="패스 107" d="M580.645,398.574,594.567,412.5l35.358,76.447-6.51,5.624Z" transform="translate(-262.571 -180.238)" fill="#ccc"/>
    <path id="패스_108" data-name="패스 108" d="M525.386,421.624l1.092,19.664,33.374,77.334,8.532-1.1Z" transform="translate(-237.583 -190.661)" fill="#ccc"/>
    <path id="패스_109" data-name="패스 109" d="M512.477,566.637l-13.623,22.3L508.9,621.62l19.563-17.5Z" transform="translate(-225.585 -256.237)" fill="#e6e6e6"/>
    <path id="패스_110" data-name="패스 110" d="M567.217,514.458q-10.61,0-23.257-.8c-43.612-2.769-100.1-12.4-159.066-27.112s-113.355-32.755-153.155-50.8c-19.388-8.79-34.268-17.111-44.226-24.732-10.543-8.067-15.155-15.1-13.708-20.9,2.82-11.3,27.79-13.773,48.241-13.857l.007,1.643c-28.084.115-44.653,4.594-46.653,12.611-2.548,10.211,18.234,26.152,57.018,43.737,39.713,18,94,36.012,152.875,50.7s115.257,24.3,158.772,27.066c42.5,2.7,68.334-1.609,70.882-11.82,2.115-8.478-11.831-20.967-39.271-35.167l.755-1.459c19.938,10.318,43.082,25.117,40.11,37.025-1.448,5.8-8.823,9.841-21.92,12.009A171.674,171.674,0,0,1,567.217,514.458Z" transform="translate(-159.985 -190.358)" fill="#3f3d56"/>
  </g>
</svg>
